<svg version="1.1" id="Layer_1" xmlns="http://www.w3.org/2000/svg" xmlns:xlink="http://www.w3.org/1999/xlink" x="0px" y="0px"
	 width="100%" viewBox="0 0 100 210" enable-background="new 0 0 100 210" xml:space="preserve">
<path fill="#FCFBF9" opacity="1.000000" stroke="none" 
	d="
M1.000000,12.000000 
	C1.000000,8.336950 1.000000,4.673900 0.999999,1.008137 
	C34.296837,1.005425 67.593681,1.005425 100.945259,1.005425 
	C100.945259,70.894424 100.945259,140.788895 100.945259,210.841690 
	C67.667221,210.841690 34.333710,210.841690 1.000000,210.841690 
	C1.000000,203.589645 1.000000,196.263565 1.254299,188.427460 
	C1.680269,187.922699 1.851940,187.927917 2.097870,188.271469 
	C4.976508,194.293884 9.397360,197.865585 15.851871,197.897842 
	C39.173050,198.014404 62.496185,198.064407 85.816399,197.873215 
	C93.934082,197.806671 99.963310,191.073120 99.964073,182.931046 
	C99.969261,127.125351 99.973030,71.319649 99.959702,15.513957 
	C99.957817,7.623461 94.409737,2.014630 86.629433,2.008942 
	C63.141083,1.991771 39.650219,2.194906 16.165783,1.891048 
	C8.665586,1.794005 4.271026,4.975739 1.563715,11.631033 
	C1.209579,11.740501 1.104789,11.870251 1.000000,12.000000 
M31.290644,202.817947 
	C30.853378,202.698898 30.416113,202.579865 29.909245,201.855255 
	C29.181679,201.611481 28.454113,201.367706 27.102047,200.960983 
	C19.282759,199.317886 24.139366,206.047623 22.299711,209.059998 
	C24.795248,208.843460 27.290787,208.626923 30.160639,208.840851 
	C30.724066,208.855057 31.287493,208.869263 32.478851,208.905609 
	C32.688290,208.905502 32.897732,208.905411 33.691559,209.013031 
	C34.085648,208.982529 34.479733,208.952042 35.622181,208.948593 
	C36.120834,208.942429 36.619492,208.936264 37.524410,208.973221 
	C37.524410,208.973221 37.926945,208.903366 38.611118,208.901688 
	C38.579178,207.482727 38.547237,206.063766 38.170063,204.106125 
	C37.233078,203.868088 36.296097,203.630035 34.688698,203.074188 
	C33.796749,203.336441 32.904800,203.598694 31.567562,203.648483 
	C31.567562,203.648483 31.105974,203.822769 31.250921,203.733994 
	C31.250921,203.733994 31.199915,203.571854 31.290644,202.817947 
M65.909676,202.184677 
	C65.419807,202.452042 64.929939,202.719421 64.407921,202.911377 
	C64.407921,202.911377 64.402916,202.914124 64.040573,201.857315 
	C58.461658,202.827026 63.715477,206.684753 62.411430,209.313980 
	C63.842953,208.795670 65.274475,208.277359 67.295181,207.940552 
	C67.496834,207.980148 67.698479,208.019730 68.148354,208.510941 
	C68.452919,208.603409 68.757492,208.695877 69.765800,208.970169 
	C70.482536,208.900452 71.199265,208.830734 72.641289,208.599548 
	C73.067726,204.364685 73.067726,204.364685 67.378448,202.928833 
	C67.037933,202.933319 66.697426,202.937805 66.217865,202.876907 
	C66.217865,202.876907 66.076645,202.937485 65.909676,202.184677 
M42.676929,206.136856 
	C42.599762,206.237106 42.436260,206.389587 42.459980,206.428802 
	C42.579674,206.626633 42.748131,206.794968 43.040611,207.773605 
	C45.371090,208.275040 47.701572,208.776474 51.466370,209.586502 
	C50.610611,206.846283 50.099716,205.210358 49.588825,203.574417 
	C47.403568,204.379852 45.218311,205.185287 42.676929,206.136856 
z"/>
<path fill="#F5CB1F" opacity="1.000000" stroke="none" 
	d="
M2.023612,187.933136 
	C1.851940,187.927917 1.680269,187.922699 1.254299,187.958740 
	C1.000000,129.645767 1.000000,71.291542 1.000000,12.468657 
	C1.104789,11.870251 1.209579,11.740501 1.621646,12.123869 
	C1.960486,71.069038 1.992049,129.501083 2.023612,187.933136 
z"/>
<path fill="#F4C305" opacity="1.000000" stroke="none" 
	d="
M2.097870,188.271469 
	C1.992049,129.501083 1.960486,71.069038 1.870993,12.144151 
	C4.271026,4.975739 8.665586,1.794005 16.165783,1.891048 
	C39.650219,2.194906 63.141083,1.991771 86.629433,2.008942 
	C94.409737,2.014630 99.957817,7.623461 99.959702,15.513957 
	C99.973030,71.319649 99.969261,127.125351 99.964073,182.931046 
	C99.963310,191.073120 93.934082,197.806671 85.816399,197.873215 
	C62.496185,198.064407 39.173050,198.014404 15.851871,197.897842 
	C9.397360,197.865585 4.976508,194.293884 2.097870,188.271469 
M93.110519,153.433624 
	C93.110504,108.627602 93.115692,63.821583 93.105644,19.015564 
	C93.103844,11.001984 89.992767,7.938529 81.892456,7.934359 
	C61.238361,7.923724 40.584259,7.927790 19.930159,7.932293 
	C10.926581,7.934257 8.092505,10.805374 8.091978,19.926039 
	C8.089337,65.731499 8.090634,111.536964 8.091544,157.342422 
	C8.091568,158.508331 7.996641,159.686356 8.127715,160.838058 
	C8.695326,165.825409 12.051680,168.981262 17.122408,168.993546 
	C39.442024,169.047546 61.761913,169.044830 84.081558,168.995743 
	C89.469833,168.983902 92.710823,165.813599 93.080521,160.401794 
	C93.216446,158.412125 93.107704,156.405716 93.110519,153.433624 
M67.692474,188.002808 
	C66.456757,188.416306 65.221031,188.829803 63.985317,189.243301 
	C64.087990,189.874954 64.190666,190.506607 64.293343,191.138260 
	C67.663429,191.138260 71.036102,191.055359 74.402931,191.160156 
	C78.239571,191.279587 81.138664,190.224319 81.050865,185.777405 
	C80.964859,181.421890 77.708435,181.076141 74.363785,180.894089 
	C72.509483,180.793137 70.670525,180.410233 68.824654,180.154404 
	C68.877617,179.389282 68.930580,178.624161 68.983543,177.859039 
	C71.980080,177.859039 74.986336,177.992432 77.967072,177.775330 
	C78.827713,177.712646 79.614967,176.642319 80.435875,176.033966 
	C79.659126,175.388214 78.927116,174.262756 78.097366,174.185410 
	C75.460556,173.939514 72.783913,173.996597 70.129028,174.100052 
	C66.785851,174.230316 63.593208,175.009201 63.231129,179.044159 
	C62.830399,183.509857 66.539474,183.802185 69.577728,184.481339 
	C71.642120,184.942780 73.770302,185.118912 75.869949,185.422638 
	C75.870789,186.094620 75.871620,186.766602 75.872459,187.438599 
	C73.443764,187.626526 71.015060,187.814453 67.692474,188.002808 
M41.521324,178.218369 
	C39.474606,182.625916 39.763943,186.680588 43.694981,189.888062 
	C46.280075,191.997314 53.193932,191.646469 56.588421,189.058167 
	C52.775158,188.166000 49.403141,187.377075 46.031120,186.588135 
	C55.207771,183.585327 55.207771,183.585327 55.499699,181.403076 
	C52.358711,181.183090 49.228508,180.963867 46.098305,180.744629 
	C46.066406,180.092087 46.034508,179.439545 46.002613,178.787003 
	C48.530144,178.484085 51.082958,178.307877 53.571842,177.811279 
	C54.474705,177.631134 55.224819,176.685410 56.044636,176.089005 
	C55.301270,175.420273 54.584286,174.210373 53.810162,174.172638 
	C49.518955,173.963470 45.002827,173.324738 41.521324,178.218369 
M17.637041,180.884644 
	C18.863649,183.617538 19.983191,186.405167 21.345015,189.068939 
	C22.911093,192.132248 25.851332,192.146820 27.301929,189.794128 
	C30.180744,185.125092 32.185726,179.917297 34.551834,174.932144 
	C26.503561,174.738495 28.573063,182.530167 24.817759,185.239014 
	C20.923691,182.336456 23.118479,174.216797 14.708799,174.028244 
	C15.770787,176.592773 16.521057,178.404556 17.637041,180.884644 
z"/>
<path fill="#484848" opacity="1.000000" stroke="none" 
	d="
M29.786324,208.410370 
	C27.290787,208.626923 24.795248,208.843460 22.299711,209.059998 
	C24.139366,206.047623 19.282759,199.317886 27.465694,201.383667 
	C27.887991,203.051590 27.946642,204.296814 28.362003,205.511719 
	C29.074583,206.457718 29.430454,207.434052 29.786324,208.410370 
z"/>
<path fill="#484848" opacity="1.000000" stroke="none" 
	d="
M43.033054,205.990707 
	C45.218311,205.185287 47.403568,204.379852 49.588821,203.574417 
	C50.099716,205.210358 50.610611,206.846283 51.466370,209.586502 
	C47.701572,208.776474 45.371090,208.275040 43.293709,207.364136 
	C43.922825,206.807388 44.298851,206.660126 44.674873,206.512848 
	C44.127598,206.338791 43.580326,206.164749 43.033054,205.990707 
z"/>
<path fill="#444444" opacity="1.000000" stroke="none" 
	d="
M69.062065,208.788330 
	C68.757492,208.695877 68.452919,208.603409 68.041473,207.859406 
	C67.933327,205.790482 67.932045,204.373093 67.930771,202.955719 
	C73.067726,204.364685 73.067726,204.364685 72.084244,208.493454 
	C70.705490,208.521011 69.883781,208.654678 69.062065,208.788330 
z"/>
<path fill="#353535" opacity="1.000000" stroke="none" 
	d="
M66.706001,207.759048 
	C65.274475,208.277359 63.842953,208.795670 62.411430,209.313980 
	C63.715477,206.684753 58.461658,202.827026 63.783722,202.542877 
	C64.785576,207.453873 65.289116,201.834488 66.480057,203.467621 
	C66.665924,205.200073 66.685966,206.479553 66.706001,207.759048 
z"/>
<path fill="#B1B1B1" opacity="1.000000" stroke="none" 
	d="
M33.107170,208.905319 
	C32.897732,208.905411 32.688290,208.905502 32.189144,208.612625 
	C31.750990,207.396194 31.602545,206.472748 31.635315,205.305344 
	C31.881971,204.661240 31.947414,204.261093 32.012856,203.860931 
	C32.904800,203.598694 33.796749,203.336441 34.988403,203.433319 
	C35.288113,203.792435 35.044712,204.118301 34.645859,204.035950 
	C33.867065,205.604156 33.487118,207.254745 33.107170,208.905319 
z"/>
<path fill="#272727" opacity="1.000000" stroke="none" 
	d="
M35.044712,204.118301 
	C35.044712,204.118301 35.288113,203.792435 35.323612,203.592209 
	C36.296097,203.630035 37.233078,203.868088 38.173355,204.775452 
	C38.093414,206.597656 38.010181,207.750504 37.926949,208.903366 
	C37.926945,208.903366 37.524410,208.973221 37.255630,208.565704 
	C36.326992,207.114639 35.667133,206.071075 35.022957,204.800476 
	C35.038639,204.573425 35.044712,204.118301 35.044712,204.118301 
z"/>
<path fill="#393939" opacity="1.000000" stroke="none" 
	d="
M34.645859,204.035950 
	C35.044712,204.118301 35.038639,204.573425 34.997639,205.189728 
	C34.929031,206.844543 34.901424,207.883057 34.873821,208.921555 
	C34.479733,208.952042 34.085648,208.982529 33.399368,208.959167 
	C33.487118,207.254745 33.867065,205.604156 34.645859,204.035950 
z"/>
<path fill="#B4B4B4" opacity="1.000000" stroke="none" 
	d="
M67.000595,207.849792 
	C66.685966,206.479553 66.665924,205.200073 66.462662,203.493103 
	C66.279434,203.065628 66.356911,202.942291 66.356911,202.942291 
	C66.697426,202.937805 67.037933,202.933319 67.654610,202.942276 
	C67.932045,204.373093 67.933327,205.790482 67.917366,207.633591 
	C67.698479,208.019730 67.496834,207.980148 67.000595,207.849792 
z"/>
<path fill="#2C2C2C" opacity="1.000000" stroke="none" 
	d="
M31.454098,205.549301 
	C31.602545,206.472748 31.750990,207.396194 31.875177,208.601547 
	C31.287493,208.869263 30.724066,208.855057 29.973480,208.625610 
	C29.430454,207.434052 29.074583,206.457718 28.732571,205.649963 
	C29.175848,205.222565 29.605267,204.626572 30.349115,203.974640 
	C30.842335,203.803070 31.021126,203.687469 31.199915,203.571854 
	C31.199915,203.571854 31.250921,203.733994 31.223036,204.218628 
	C31.281466,204.985260 31.367781,205.267273 31.454098,205.549301 
z"/>
<path fill="#CCCCCC" opacity="1.000000" stroke="none" 
	d="
M35.248001,208.935074 
	C34.901424,207.883057 34.929031,206.844543 34.981956,205.416779 
	C35.667133,206.071075 36.326992,207.114639 37.052498,208.544144 
	C36.619492,208.936264 36.120834,208.942429 35.248001,208.935074 
z"/>
<path fill="#EBEBEB" opacity="1.000000" stroke="none" 
	d="
M30.034683,204.030579 
	C29.605267,204.626572 29.175848,205.222565 28.375862,205.680298 
	C27.946642,204.296814 27.887991,203.051590 27.777943,201.465149 
	C28.454113,201.367706 29.181679,201.611481 29.958759,202.550400 
	C30.017078,203.507217 30.025879,203.768906 30.034683,204.030579 
z"/>
<path fill="#858585" opacity="1.000000" stroke="none" 
	d="
M38.269035,208.902527 
	C38.010181,207.750504 38.093414,206.597656 38.345970,205.044800 
	C38.547237,206.063766 38.579178,207.482727 38.269035,208.902527 
z"/>
<path fill="#BABABA" opacity="1.000000" stroke="none" 
	d="
M66.287384,202.909607 
	C66.356911,202.942291 66.279434,203.065628 66.296829,203.040131 
	C65.289116,201.834488 64.785576,207.453873 63.964897,203.071289 
	C64.402916,202.914124 64.407921,202.911377 64.838425,203.112427 
	C65.538162,203.188156 65.807404,203.062820 66.076645,202.937485 
	C66.076645,202.937485 66.217865,202.876907 66.287384,202.909607 
z"/>
<path fill="#DFDDDD" opacity="1.000000" stroke="none" 
	d="
M42.854992,206.063782 
	C43.580326,206.164749 44.127598,206.338791 44.674873,206.512848 
	C44.298851,206.660126 43.922825,206.807388 43.223145,206.964142 
	C42.748131,206.794968 42.579674,206.626633 42.459980,206.428802 
	C42.436260,206.389587 42.599762,206.237106 42.854992,206.063782 
z"/>
<path fill="#272727" opacity="1.000000" stroke="none" 
	d="
M69.413933,208.879242 
	C69.883781,208.654678 70.705490,208.521011 71.721603,208.574188 
	C71.199265,208.830734 70.482536,208.900452 69.413933,208.879242 
z"/>
<path fill="#404040" opacity="1.000000" stroke="none" 
	d="
M31.635313,205.305344 
	C31.367781,205.267273 31.281466,204.985260 31.150562,204.263000 
	C31.105974,203.822769 31.567562,203.648483 31.790211,203.754715 
	C31.947414,204.261093 31.881971,204.661240 31.635313,205.305344 
z"/>
<path fill="#888888" opacity="1.000000" stroke="none" 
	d="
M30.349113,203.974640 
	C30.025879,203.768906 30.017078,203.507217 29.993563,202.853180 
	C30.416113,202.579865 30.853378,202.698898 31.245279,203.194901 
	C31.021126,203.687469 30.842335,203.803070 30.349113,203.974640 
z"/>
<path fill="#353535" opacity="1.000000" stroke="none" 
	d="
M65.993164,202.561081 
	C65.807404,203.062820 65.538162,203.188156 64.854500,203.150131 
	C64.929939,202.719421 65.419807,202.452042 65.993164,202.561081 
z"/>
<path fill="#FEFDFA" opacity="1.000000" stroke="none" 
	d="
M93.110542,153.920288 
	C93.107704,156.405716 93.216446,158.412125 93.080521,160.401794 
	C92.710823,165.813599 89.469833,168.983902 84.081558,168.995743 
	C61.761913,169.044830 39.442024,169.047546 17.122408,168.993546 
	C12.051680,168.981262 8.695326,165.825409 8.127715,160.838058 
	C7.996641,159.686356 8.091568,158.508331 8.091544,157.342422 
	C8.090634,111.536964 8.089337,65.731499 8.091978,19.926039 
	C8.092505,10.805374 10.926581,7.934257 19.930159,7.932293 
	C40.584259,7.927790 61.238361,7.923724 81.892456,7.934359 
	C89.992767,7.938529 93.103844,11.001984 93.105644,19.015564 
	C93.115692,63.821583 93.110504,108.627602 93.110542,153.920288 
M51.069344,104.514236 
	C51.143799,104.249168 51.218254,103.984108 51.298897,103.689774 
	C51.298897,103.689774 51.323696,103.677231 51.340359,102.825180 
	C51.378967,102.258598 51.417580,101.692017 52.015900,101.074219 
	C52.638947,100.782700 53.261990,100.491173 54.309090,99.652138 
	C62.189125,92.038406 69.951355,84.297646 77.984184,76.848679 
	C85.209442,70.148590 85.774925,65.598503 79.728996,57.573982 
	C78.445877,59.033089 77.162750,60.492195 75.503448,61.752075 
	C75.272514,61.570881 75.113068,61.340256 75.301147,60.406219 
	C79.810028,53.546017 80.019478,47.880989 76.024651,42.076172 
	C70.251450,54.573917 59.868206,62.718822 48.425636,69.959991 
	C48.376442,65.684242 49.438694,61.895580 52.872498,58.993340 
	C55.148220,57.069908 57.255043,54.948097 59.473549,52.955254 
	C66.783348,46.389023 67.615997,42.362934 63.833378,33.446877 
	C60.855579,37.187386 57.814175,41.257912 54.507683,45.100327 
	C49.980171,50.361679 44.907906,55.187737 40.710041,60.689396 
	C36.886585,65.700356 39.323841,73.350906 44.980225,76.779533 
	C43.594601,83.274300 43.874817,89.563866 46.976765,95.613434 
	C48.182068,97.964066 49.029793,100.498039 50.060970,103.482002 
	C50.299644,103.736847 50.538319,103.991699 51.069344,104.514236 
M81.413330,118.304337 
	C81.413330,118.304337 81.600418,118.148712 82.200439,118.194672 
	C82.320396,117.627380 82.440353,117.060097 82.994682,116.310471 
	C83.155319,115.861496 83.315964,115.412521 83.442696,114.421890 
	C83.424210,114.060577 83.405716,113.699265 84.009499,113.202393 
	C84.173370,112.714821 84.337242,112.227249 84.585403,111.050758 
	C84.707832,110.370316 84.830254,109.689880 85.588417,108.797607 
	C87.101624,107.863472 89.442223,107.026428 86.153915,104.786926 
	C85.631622,102.921829 85.109329,101.056732 84.693192,99.570724 
	C80.536087,100.451935 76.519569,101.561531 72.427826,102.116737 
	C64.000938,103.260193 56.190514,105.535698 49.868332,111.761131 
	C41.157417,101.353340 28.420193,102.640800 16.173416,100.347954 
	C15.146533,101.238792 14.119650,102.129631 12.861178,103.787659 
	C13.632924,106.528374 14.404670,109.269089 15.311579,112.680580 
	C15.855042,113.643936 16.398506,114.607285 16.713741,116.248749 
	C17.034283,117.364243 17.354826,118.479729 17.669662,120.075493 
	C17.696405,120.400070 17.775749,120.711243 18.042740,121.690323 
	C18.396172,122.791122 18.749603,123.891930 19.099867,125.599754 
	C19.423073,126.093163 19.746279,126.586563 20.495567,127.419006 
	C21.390476,129.274460 22.285385,131.129898 23.148630,133.417053 
	C23.148630,133.417053 23.212978,133.844986 22.966240,134.390991 
	C23.736355,135.935760 24.506470,137.480515 25.456898,139.627472 
	C25.731419,140.396133 26.005939,141.164795 26.160957,142.440216 
	C26.422379,142.643005 26.683800,142.845810 27.053711,143.059799 
	C27.053711,143.059799 27.087681,142.956161 27.167063,143.612717 
	C27.258213,144.043869 27.349365,144.475037 27.083422,145.546799 
	C27.057217,146.031723 27.031013,146.516647 26.836138,147.697205 
	C27.158234,148.514832 27.480328,149.332474 27.739578,150.065170 
	C27.739578,150.065170 27.669748,150.144455 27.557173,150.776764 
	C27.672453,151.188614 27.787731,151.600449 27.940235,152.697037 
	C28.443943,153.946106 28.947651,155.195160 29.483040,157.186386 
	C30.620461,161.055176 32.494568,157.411713 34.549244,158.126923 
	C36.736996,159.077805 38.919575,160.040817 41.113766,160.976593 
	C44.058117,162.232300 47.011452,163.466965 50.558254,165.200104 
	C53.116341,163.851776 55.610149,162.358154 58.248352,161.190903 
	C61.757973,159.638062 65.380081,158.339462 69.028358,157.589203 
	C69.393784,158.214157 69.759209,158.839127 70.234688,159.652313 
	C71.235634,157.462128 72.050423,155.679291 73.138275,153.196655 
	C73.899704,150.503387 74.661133,147.810120 75.830246,144.615051 
	C76.060631,143.558624 76.291016,142.502213 76.878242,140.927277 
	C77.185799,139.932663 77.493355,138.938049 78.079079,137.218613 
	C78.161560,135.258926 78.244049,133.299225 78.325722,131.149246 
	C78.325722,131.149246 78.157555,131.040298 78.285255,130.337677 
	C78.367889,129.630295 78.450523,128.922897 78.948563,128.378540 
	C78.948563,128.378540 79.364281,128.216278 80.089882,128.218048 
	C80.879272,126.599030 81.668671,124.980019 82.827164,122.687012 
	C82.323112,121.228424 81.819069,119.769829 81.237282,118.273491 
	C81.237282,118.273491 81.194130,118.198616 81.413330,118.304337 
M61.211796,15.466520 
	C60.733337,14.347842 60.254875,13.229164 59.623573,11.753134 
	C53.218613,24.743160 42.947983,33.814594 33.153107,43.201912 
	C27.694717,48.433182 25.494564,54.388260 26.947817,61.597538 
	C28.720943,70.393654 34.112206,77.205887 39.829445,83.846756 
	C40.105434,82.815399 40.181759,81.855072 39.852596,81.063316 
	C34.016651,67.025719 34.823273,54.349339 47.038750,43.736176 
	C50.543934,40.690765 53.370285,36.828377 57.007992,33.979073 
	C63.278503,29.067574 64.010818,23.137674 61.211796,15.466520 
z"/>
<path fill="#AF352B" opacity="1.000000" stroke="none" 
	d="
M68.139420,188.002594 
	C71.015060,187.814453 73.443764,187.626526 75.872459,187.438599 
	C75.871620,186.766602 75.870789,186.094620 75.869949,185.422638 
	C73.770302,185.118912 71.642120,184.942780 69.577728,184.481339 
	C66.539474,183.802185 62.830399,183.509857 63.231129,179.044159 
	C63.593208,175.009201 66.785851,174.230316 70.129028,174.100052 
	C72.783913,173.996597 75.460556,173.939514 78.097366,174.185410 
	C78.927116,174.262756 79.659126,175.388214 80.435867,176.033966 
	C79.614967,176.642319 78.827713,177.712646 77.967072,177.775330 
	C74.986336,177.992432 71.980080,177.859039 68.983543,177.859039 
	C68.930580,178.624161 68.877617,179.389282 68.824654,180.154404 
	C70.670525,180.410233 72.509483,180.793137 74.363785,180.894089 
	C77.708435,181.076141 80.964859,181.421890 81.050865,185.777405 
	C81.138664,190.224319 78.239571,191.279587 74.402931,191.160156 
	C71.036102,191.055359 67.663429,191.138260 64.293343,191.138260 
	C64.190666,190.506607 64.087990,189.874954 63.985317,189.243301 
	C65.221031,188.829803 66.456757,188.416306 68.139420,188.002594 
z"/>
<path fill="#B23B29" opacity="1.000000" stroke="none" 
	d="
M41.743626,177.899994 
	C45.002827,173.324738 49.518955,173.963470 53.810162,174.172638 
	C54.584286,174.210373 55.301270,175.420273 56.044632,176.088989 
	C55.224819,176.685410 54.474705,177.631134 53.571842,177.811279 
	C51.082958,178.307877 48.530144,178.484085 46.002613,178.787003 
	C46.034508,179.439545 46.066406,180.092087 46.098305,180.744629 
	C49.228508,180.963867 52.358711,181.183090 55.499699,181.403076 
	C55.207771,183.585327 55.207771,183.585327 46.031120,186.588135 
	C49.403141,187.377075 52.775158,188.166000 56.588421,189.058167 
	C53.193932,191.646469 46.280075,191.997314 43.694981,189.888062 
	C39.763943,186.680588 39.474606,182.625916 41.743626,177.899994 
z"/>
<path fill="#AF352C" opacity="1.000000" stroke="none" 
	d="
M17.454185,180.550491 
	C16.521057,178.404556 15.770787,176.592773 14.708799,174.028244 
	C23.118479,174.216797 20.923691,182.336456 24.817759,185.239014 
	C28.573063,182.530167 26.503561,174.738495 34.551834,174.932144 
	C32.185726,179.917297 30.180744,185.125092 27.301929,189.794128 
	C25.851332,192.146820 22.911093,192.132248 21.345015,189.068939 
	C19.983191,186.405167 18.863649,183.617538 17.454185,180.550491 
z"/>
<path fill="#F4C303" opacity="1.000000" stroke="none" 
	d="
M68.953857,156.931641 
	C65.380081,158.339462 61.757973,159.638062 58.248352,161.190903 
	C55.610149,162.358154 53.116341,163.851776 50.305649,164.508926 
	C50.169945,146.644669 50.286846,129.471603 50.403748,112.298523 
	C56.190514,105.535698 64.000938,103.260193 72.427826,102.116737 
	C76.519569,101.561531 80.536087,100.451935 84.693192,99.570724 
	C85.109329,101.056732 85.631622,102.921829 85.887657,105.188934 
	C85.621399,105.590942 85.358414,105.840698 84.983566,105.848915 
	C84.131920,106.943016 83.655128,108.028908 83.107437,109.463211 
	C83.024246,110.522186 83.011948,111.232750 82.701508,112.118546 
	C82.228859,113.188286 82.054344,114.082802 81.618607,115.151688 
	C81.325981,115.728592 81.294563,116.131126 81.218872,116.811020 
	C81.316544,117.441833 81.458481,117.795273 81.600418,118.148712 
	C81.600418,118.148712 81.413330,118.304337 81.076935,118.236847 
	C80.402611,118.222168 80.200363,118.416092 80.059608,119.091316 
	C79.705841,120.302696 79.426270,121.173889 79.096649,122.369492 
	C79.016617,123.131027 78.986641,123.568130 78.985382,123.998154 
	C79.014099,123.991074 78.990700,123.936737 78.754105,124.103996 
	C78.175842,125.163574 77.834183,126.055901 77.130936,126.972931 
	C76.486847,127.631668 76.204346,128.265686 75.673416,129.146210 
	C74.993721,130.960815 74.562462,132.528900 74.072998,134.433929 
	C74.045296,135.451813 74.075813,136.132797 74.014458,137.163025 
	C73.653023,138.664871 73.383469,139.817490 73.044777,141.313171 
	C72.706139,142.542831 72.436646,143.429428 72.082016,144.608246 
	C71.678146,145.627029 71.359421,146.353577 71.015587,147.383606 
	C70.977554,148.092850 70.964638,148.498611 70.674248,149.091949 
	C70.244461,150.148651 70.092148,151.017761 69.647484,152.095367 
	C69.316063,153.010071 69.276993,153.716293 69.195831,154.735214 
	C69.087105,155.675812 69.020485,156.303726 68.953857,156.931641 
z"/>
<path fill="#AC3131" opacity="1.000000" stroke="none" 
	d="
M50.136040,112.029831 
	C50.286846,129.471603 50.169945,146.644669 50.006985,164.264221 
	C47.011452,163.466965 44.058117,162.232300 41.113766,160.976593 
	C38.919575,160.040817 36.736996,159.077805 34.098198,157.587219 
	C32.421326,153.338242 31.195498,149.628967 30.027235,145.829346 
	C30.084801,145.739014 30.029804,145.530197 30.117130,145.093811 
	C29.659025,142.721405 29.113596,140.785370 28.508680,138.601562 
	C27.968729,138.225632 27.488264,138.097458 26.965496,137.832825 
	C26.923195,137.696381 26.813162,137.432709 26.882442,137.124969 
	C26.938301,136.607376 26.924881,136.397507 26.952663,135.870300 
	C26.672062,135.303192 26.350258,135.053421 26.023384,134.446945 
	C25.655293,132.748077 25.292269,131.405899 24.964085,129.754486 
	C24.619543,128.961395 24.240164,128.477524 23.900078,127.782654 
	C23.939371,127.571655 23.892893,127.144936 23.930008,126.825104 
	C23.650652,126.231773 23.334183,125.958275 23.026133,125.417603 
	C22.993307,124.796638 22.952066,124.442833 22.964233,123.818398 
	C22.757782,123.315994 22.497927,123.084229 22.184124,122.889709 
	C22.130178,122.926949 22.195278,122.813156 22.162287,122.527649 
	C22.074053,121.862053 22.018810,121.481972 22.004286,120.757568 
	C21.682013,119.592110 21.319021,118.770988 20.987110,117.704964 
	C20.890133,117.118111 20.645372,116.921738 20.264847,116.825607 
	C20.245787,116.780258 20.166058,116.722610 20.152964,116.437843 
	C20.058187,115.781487 19.976505,115.409904 19.905437,114.796432 
	C19.837749,114.195114 19.617748,113.981857 19.195581,113.516602 
	C18.767622,111.695015 18.400127,110.271614 18.005852,108.492523 
	C17.372381,106.664619 16.765690,105.192398 16.131062,103.422562 
	C16.366903,102.219719 16.630678,101.314484 16.894453,100.409248 
	C28.420193,102.640800 41.157417,101.353340 50.136040,112.029831 
z"/>
<path fill="#AD3231" opacity="1.000000" stroke="none" 
	d="
M61.344501,15.834959 
	C64.010818,23.137674 63.278503,29.067574 57.007992,33.979073 
	C53.370285,36.828377 50.543934,40.690765 47.038750,43.736176 
	C34.823273,54.349339 34.016651,67.025719 39.852596,81.063316 
	C40.181759,81.855072 40.105434,82.815399 39.829445,83.846756 
	C34.112206,77.205887 28.720943,70.393654 26.947817,61.597538 
	C25.494564,54.388260 27.694717,48.433182 33.153107,43.201912 
	C42.947983,33.814594 53.218613,24.743160 59.623573,11.753134 
	C60.254875,13.229164 60.733337,14.347842 61.344501,15.834959 
z"/>
<path fill="#AE3534" opacity="1.000000" stroke="none" 
	d="
M50.040405,102.948502 
	C49.029793,100.498039 48.182068,97.964066 46.976765,95.613434 
	C43.874817,89.563866 43.594601,83.274300 45.123493,76.093079 
	C46.518131,73.745529 47.769501,72.084435 49.020874,70.423332 
	C59.868206,62.718822 70.251450,54.573917 76.024651,42.076172 
	C80.019478,47.880989 79.810028,53.546017 74.882858,60.859768 
	C74.290947,61.867420 74.117332,62.421528 73.971901,62.986298 
	C74.000092,62.996964 73.987961,62.937916 73.640610,62.940369 
	C68.898811,66.660843 64.541702,70.424164 60.100262,74.085159 
	C54.828274,78.430748 52.103157,83.992317 51.540642,91.115753 
	C51.337666,94.673798 51.396927,97.899612 51.456192,101.125435 
	C51.417580,101.692017 51.378967,102.258598 51.020962,103.050133 
	C50.481174,103.166222 50.260788,103.057365 50.040405,102.948502 
z"/>
<path fill="#F4C509" opacity="1.000000" stroke="none" 
	d="
M75.879631,61.951302 
	C77.162750,60.492195 78.445877,59.033089 79.729881,57.574776 
	C85.774925,65.598503 85.209442,70.148590 77.984184,76.848679 
	C69.951355,84.297646 62.189125,92.038406 53.798656,99.636620 
	C53.135372,97.080460 52.982521,94.539810 52.928310,91.648788 
	C54.729675,88.727982 56.099014,85.833549 58.210773,83.660637 
	C61.653549,80.118156 65.649330,77.120461 69.283020,73.753922 
	C72.390785,70.874626 74.762543,67.560280 73.987961,62.937916 
	C73.987961,62.937916 74.000092,62.996964 74.258492,63.160118 
	C74.971138,62.865948 75.425385,62.408627 75.879631,61.951302 
z"/>
<path fill="#F4C408" opacity="1.000000" stroke="none" 
	d="
M48.723255,70.191666 
	C47.769501,72.084435 46.518131,73.745529 45.082005,75.672531 
	C39.323841,73.350906 36.886585,65.700356 40.710041,60.689396 
	C44.907906,55.187737 49.980171,50.361679 54.507683,45.100327 
	C57.814175,41.257912 60.855579,37.187386 63.833378,33.446877 
	C67.615997,42.362934 66.783348,46.389023 59.473549,52.955254 
	C57.255043,54.948097 55.148220,57.069908 52.872498,58.993340 
	C49.438694,61.895580 48.376442,65.684242 48.723255,70.191666 
z"/>
<path fill="#F8D738" opacity="1.000000" stroke="none" 
	d="
M29.969669,145.919678 
	C31.195498,149.628967 32.421326,153.338242 33.818642,157.337952 
	C32.494568,157.411713 30.620461,161.055176 29.629295,156.693420 
	C29.775551,156.200470 30.057003,155.917099 30.319202,155.754333 
	C30.344215,154.712799 30.107029,153.834045 29.668388,152.839310 
	C29.222322,152.517929 29.051876,152.262939 28.935455,151.647491 
	C28.500128,150.939240 28.084936,150.541855 27.669746,150.144455 
	C27.669748,150.144455 27.739578,150.065170 27.837917,149.815842 
	C27.961893,149.369415 27.987526,149.172333 28.298283,148.792847 
	C28.767685,147.726227 28.951963,146.841995 29.344734,145.951187 
	C29.553225,145.944595 29.969669,145.919678 29.969669,145.919678 
z"/>
<path fill="#F8D338" opacity="1.000000" stroke="none" 
	d="
M16.158997,103.720169 
	C16.765690,105.192398 17.372381,106.664619 17.976086,108.768936 
	C17.355177,109.294373 16.737255,109.187714 16.021961,109.064255 
	C16.021961,110.042572 16.021961,111.016060 15.810581,111.994888 
	C15.599201,112.000221 15.176415,112.009804 15.176416,112.009804 
	C14.404670,109.269089 13.632924,106.528374 13.217985,103.583099 
	C14.436195,103.492416 15.297597,103.606293 16.158997,103.720169 
z"/>
<path fill="#F1CFBE" opacity="1.000000" stroke="none" 
	d="
M52.829666,91.999168 
	C52.982521,94.539810 53.135372,97.080460 53.586632,99.910378 
	C53.261990,100.491173 52.638947,100.782700 51.736046,101.099823 
	C51.396927,97.899612 51.337666,94.673798 51.684326,91.342499 
	C52.336723,91.491074 52.583195,91.745125 52.829666,91.999168 
z"/>
<path fill="#FFF49D" opacity="1.000000" stroke="none" 
	d="
M23.180294,132.985352 
	C22.285385,131.129898 21.390476,129.274460 20.324726,126.961655 
	C20.206423,126.124687 20.258965,125.745056 20.449734,125.383377 
	C20.587959,125.401321 20.827541,125.258789 20.959515,125.418671 
	C21.299166,125.767342 21.528667,125.924217 21.842178,126.340202 
	C22.248625,127.101768 22.592884,127.572311 22.932810,128.330536 
	C23.187746,129.092468 23.447014,129.566727 23.752022,130.361908 
	C23.591938,131.450333 23.386116,132.217834 23.180294,132.985352 
z"/>
<path fill="#E2A2A1" opacity="1.000000" stroke="none" 
	d="
M68.991104,157.260422 
	C69.020485,156.303726 69.087105,155.675812 69.341339,154.726166 
	C69.528954,154.404419 69.787697,154.273026 70.159561,154.144592 
	C71.046333,153.914810 71.561234,153.813461 72.267975,153.781433 
	C72.459808,153.850769 72.865211,153.896454 72.865204,153.896454 
	C72.050423,155.679291 71.235634,157.462128 70.234688,159.652313 
	C69.759209,158.839127 69.393784,158.214157 68.991104,157.260422 
z"/>
<path fill="#FADE61" opacity="1.000000" stroke="none" 
	d="
M20.827541,125.258789 
	C20.827541,125.258789 20.587959,125.401321 20.154190,125.264038 
	C19.514626,125.082085 19.308830,125.037407 19.103037,124.992729 
	C18.749603,123.891930 18.396172,122.791122 18.317097,121.309082 
	C19.055967,120.006622 19.520485,119.085388 20.229733,118.119530 
	C20.474464,118.074898 20.956032,117.949860 20.956032,117.949860 
	C21.319021,118.770988 21.682013,119.592110 21.756979,120.868896 
	C21.711063,121.820755 21.953173,122.316956 22.195278,122.813156 
	C22.195278,122.813156 22.130178,122.926949 22.111397,123.186111 
	C22.095547,123.648186 22.098480,123.851097 22.061222,124.295181 
	C22.021034,124.536346 21.929264,125.016647 21.647648,125.049042 
	C21.186537,125.140556 21.007040,125.199669 20.827541,125.258789 
z"/>
<path fill="#BE5555" opacity="1.000000" stroke="none" 
	d="
M79.146698,122.045074 
	C79.426270,121.173889 79.705841,120.302696 80.364227,119.008316 
	C80.933708,118.493828 81.124367,118.402534 81.315025,118.311241 
	C81.819069,119.769829 82.323112,121.228424 82.327866,123.038139 
	C81.213127,123.507195 80.597687,123.625114 79.962944,123.495911 
	C79.677994,122.847549 79.412346,122.446312 79.146698,122.045074 
z"/>
<path fill="#BC5254" opacity="1.000000" stroke="none" 
	d="
M73.001740,153.546555 
	C72.865211,153.896454 72.459808,153.850769 72.252151,153.421829 
	C72.074806,152.268753 72.105118,151.544632 72.334473,150.675842 
	C72.344566,149.735504 72.155609,148.939850 72.275620,148.016357 
	C73.084213,146.926895 73.583839,145.965256 74.418610,145.027557 
	C74.976685,145.073273 75.199623,145.095062 75.422569,145.116852 
	C74.661133,147.810120 73.899704,150.503387 73.001740,153.546555 
z"/>
<path fill="#FEF293" opacity="1.000000" stroke="none" 
	d="
M26.813160,137.432709 
	C26.813162,137.432709 26.923195,137.696381 26.926603,138.000748 
	C26.930012,138.305115 26.973064,138.647003 26.679523,138.671967 
	C26.016184,138.806381 25.646385,138.915833 25.276587,139.025284 
	C24.506470,137.480515 23.736355,135.935760 23.408627,134.209991 
	C24.838398,135.163559 25.825779,136.298126 26.813160,137.432709 
z"/>
<path fill="#F7D32D" opacity="1.000000" stroke="none" 
	d="
M16.131063,103.422562 
	C15.297597,103.606293 14.436195,103.492416 13.333779,103.199509 
	C14.119650,102.129631 15.146533,101.238792 16.533936,100.378601 
	C16.630678,101.314484 16.366903,102.219719 16.131063,103.422562 
z"/>
<path fill="#D78887" opacity="1.000000" stroke="none" 
	d="
M79.982254,123.743034 
	C80.597687,123.625114 81.213127,123.507195 82.143311,123.375137 
	C81.668671,124.980019 80.879272,126.599030 79.557449,127.813293 
	C79.013580,126.251266 79.002136,125.094002 78.990700,123.936737 
	C78.990700,123.936737 79.014099,123.991074 79.260246,124.004547 
	C79.665016,123.926353 79.823631,123.834694 79.982254,123.743034 
z"/>
<path fill="#F7D32D" opacity="1.000000" stroke="none" 
	d="
M26.882441,137.124969 
	C25.825779,136.298126 24.838398,135.163559 23.531998,133.936981 
	C23.212978,133.844986 23.148630,133.417053 23.164463,133.201202 
	C23.386116,132.217834 23.591938,131.450333 24.059631,130.362701 
	C24.524080,130.049637 24.726664,130.056686 24.929247,130.063736 
	C25.292269,131.405899 25.655293,132.748077 26.090559,134.724243 
	C26.412357,135.634705 26.661913,135.911179 26.911465,136.187653 
	C26.924881,136.397507 26.938301,136.607376 26.882441,137.124969 
z"/>
<path fill="#B84948" opacity="1.000000" stroke="none" 
	d="
M78.326538,131.339539 
	C78.244049,133.299225 78.161560,135.258926 77.737976,137.443115 
	C77.167107,137.428497 76.995628,137.153046 76.907524,136.599014 
	C76.702393,135.962036 76.472168,135.567322 76.142059,134.828445 
	C75.958069,134.260666 75.873955,134.037048 75.843796,133.819885 
	C75.897766,133.826370 75.895569,133.935059 76.104645,133.924194 
	C76.313713,133.913345 76.725906,133.846878 77.086121,133.694611 
	C77.739738,132.808060 78.033134,132.073807 78.326538,131.339539 
z"/>
<path fill="#FBDF56" opacity="1.000000" stroke="none" 
	d="
M19.256046,113.914787 
	C19.617748,113.981857 19.837749,114.195114 19.666737,114.954147 
	C19.277788,115.902702 19.138157,116.451660 18.716553,117.242325 
	C18.181509,118.187775 17.928438,118.891495 17.675365,119.595222 
	C17.354826,118.479729 17.034283,117.364243 16.852591,115.514168 
	C17.009813,114.516159 17.028185,114.252724 17.414547,113.988380 
	C18.273706,113.963249 18.764875,113.939018 19.256046,113.914787 
z"/>
<path fill="#F9DA5A" opacity="1.000000" stroke="none" 
	d="
M17.672514,119.835358 
	C17.928438,118.891495 18.181509,118.187775 19.018326,117.214333 
	C19.790068,116.870613 19.978064,116.796608 20.166058,116.722610 
	C20.166058,116.722610 20.245787,116.780258 20.158691,117.141998 
	C20.042732,117.723877 20.013866,117.944016 19.985001,118.164162 
	C19.520485,119.085388 19.055967,120.006622 18.249573,120.968437 
	C17.775749,120.711243 17.696405,120.400070 17.672514,119.835358 
z"/>
<path fill="#E2A2A1" opacity="1.000000" stroke="none" 
	d="
M85.358414,105.840698 
	C85.358414,105.840698 85.621399,105.590942 85.797935,105.549362 
	C89.442223,107.026428 87.101624,107.863472 85.100037,108.997894 
	C84.611649,109.198174 84.225555,109.144341 84.481049,108.780029 
	C84.943832,107.557381 85.151123,106.699043 85.358414,105.840698 
z"/>
<path fill="#F5CB1F" opacity="1.000000" stroke="none" 
	d="
M25.366741,139.326385 
	C25.646385,138.915833 26.016184,138.806381 26.742523,138.967438 
	C27.356607,139.527145 27.614153,139.816345 27.913269,140.463257 
	C27.972738,141.537903 27.990639,142.254807 27.778343,142.966751 
	C27.548147,142.961792 27.087681,142.956161 27.087681,142.956161 
	C27.087681,142.956161 27.053711,143.059799 26.957922,142.832062 
	C26.748123,142.311447 26.554232,142.087814 26.280458,141.933456 
	C26.005939,141.164795 25.731419,140.396133 25.366741,139.326385 
z"/>
<path fill="#F7D13C" opacity="1.000000" stroke="none" 
	d="
M28.955593,151.958374 
	C29.051876,152.262939 29.222322,152.517929 29.732496,153.208130 
	C30.017708,154.434326 30.037355,155.175705 30.057003,155.917099 
	C30.057003,155.917099 29.775551,156.200470 29.613457,156.322357 
	C28.947651,155.195160 28.443943,153.946106 28.185272,152.350189 
	C28.605406,151.988342 28.780500,151.973358 28.955593,151.958374 
z"/>
<path fill="#F8D528" opacity="1.000000" stroke="none" 
	d="
M27.127373,143.284439 
	C27.087681,142.956161 27.548147,142.961792 28.065586,143.135651 
	C29.065285,144.049744 29.547544,144.789978 30.029804,145.530197 
	C30.029804,145.530197 30.084801,145.739014 30.027235,145.829346 
	C29.969669,145.919678 29.553225,145.944595 29.096569,145.882111 
	C28.240116,145.515152 27.840317,145.210678 27.440517,144.906189 
	C27.349365,144.475037 27.258213,144.043869 27.127373,143.284439 
z"/>
<path fill="#BE5555" opacity="1.000000" stroke="none" 
	d="
M75.626404,144.865952 
	C75.199623,145.095062 74.976685,145.073273 74.388168,144.785156 
	C74.022583,144.518799 73.956001,144.034851 74.113586,143.738419 
	C74.611763,142.614960 74.952354,141.787918 75.441650,140.948288 
	C75.590363,140.935684 75.885361,140.890305 76.041039,141.032990 
	C76.196716,141.175674 76.521393,141.445786 76.521393,141.445786 
	C76.291016,142.502213 76.060631,143.558624 75.626404,144.865952 
z"/>
<path fill="#B13A3E" opacity="1.000000" stroke="none" 
	d="
M82.999649,111.943314 
	C83.011948,111.232750 83.024246,110.522186 83.284508,109.443970 
	C83.766716,109.066422 83.997742,109.089096 84.225555,109.144341 
	C84.225555,109.144341 84.611649,109.198174 84.782166,109.103806 
	C84.830254,109.689880 84.707832,110.370316 84.293861,111.425064 
	C83.672981,111.866615 83.343643,111.933861 83.010201,111.987198 
	C83.006096,111.973282 82.999657,111.943314 82.999649,111.943314 
z"/>
<path fill="#BE5555" opacity="1.000000" stroke="none" 
	d="
M76.882439,136.841293 
	C76.995628,137.153046 77.167107,137.428497 77.598892,137.805542 
	C77.493355,138.938049 77.185799,139.932663 76.699814,141.186523 
	C76.521393,141.445786 76.196716,141.175674 76.065598,140.661652 
	C75.901451,139.146667 75.868416,138.145706 75.938080,137.040604 
	C76.040779,136.936478 76.248459,136.734924 76.403671,136.781067 
	C76.558884,136.827209 76.882439,136.841293 76.882439,136.841293 
z"/>
<path fill="#AE3534" opacity="1.000000" stroke="none" 
	d="
M78.754105,124.103996 
	C79.002136,125.094002 79.013580,126.251266 79.194649,127.812408 
	C79.364281,128.216278 78.948563,128.378540 78.468597,128.220856 
	C77.802864,128.037567 77.617104,128.011978 77.462479,127.727852 
	C77.493248,127.295609 77.492889,127.121918 77.492523,126.948219 
	C77.834183,126.055901 78.175842,125.163574 78.754105,124.103996 
z"/>
<path fill="#FDEA74" opacity="1.000000" stroke="none" 
	d="
M27.261971,145.226501 
	C27.840317,145.210678 28.240116,145.515152 28.888079,145.888702 
	C28.951963,146.841995 28.767685,147.726227 28.283024,148.494141 
	C27.656698,147.919098 27.330753,147.460327 27.004810,147.001572 
	C27.031013,146.516647 27.057217,146.031723 27.261971,145.226501 
z"/>
<path fill="#F7D32D" opacity="1.000000" stroke="none" 
	d="
M17.046558,113.989281 
	C17.028185,114.252724 17.009813,114.516159 16.966705,115.175110 
	C16.398506,114.607285 15.855042,113.643936 15.243998,112.345192 
	C15.176415,112.009804 15.599201,112.000221 16.049641,112.166428 
	C16.682241,112.884842 16.864401,113.437065 17.046558,113.989281 
z"/>
<path fill="#B7464B" opacity="1.000000" stroke="none" 
	d="
M81.879822,114.977310 
	C82.054344,114.082802 82.228859,113.188286 82.701515,112.118546 
	C82.999657,111.943314 83.006096,111.973282 83.063873,112.332451 
	C83.210182,112.907066 83.298698,113.122505 83.387222,113.337952 
	C83.405716,113.699265 83.424210,114.060577 83.059677,114.686600 
	C82.411049,114.959976 82.145439,114.968643 81.879822,114.977310 
z"/>
<path fill="#C5686D" opacity="1.000000" stroke="none" 
	d="
M81.618607,115.151688 
	C82.145439,114.968643 82.411049,114.959976 83.076630,114.957428 
	C83.315964,115.412521 83.155319,115.861496 82.450890,116.362335 
	C81.692444,116.454025 81.477798,116.493835 81.263145,116.533653 
	C81.294563,116.131126 81.325981,115.728592 81.618607,115.151688 
z"/>
<path fill="#FEF9F1" opacity="1.000000" stroke="none" 
	d="
M75.691544,61.851692 
	C75.425385,62.408627 74.971138,62.865948 74.230301,63.149452 
	C74.117332,62.421528 74.290947,61.867420 74.744835,61.186756 
	C75.113068,61.340256 75.272514,61.570881 75.691544,61.851692 
z"/>
<path fill="#F7D32D" opacity="1.000000" stroke="none" 
	d="
M26.920475,147.349396 
	C27.330753,147.460327 27.656698,147.919098 27.997898,148.676544 
	C27.987526,149.172333 27.961893,149.369415 27.869339,149.858307 
	C27.480328,149.332474 27.158234,148.514832 26.920475,147.349396 
z"/>
<path fill="#B13A3E" opacity="1.000000" stroke="none" 
	d="
M77.431351,127.986397 
	C77.617104,128.011978 77.802864,128.037567 78.260887,128.139343 
	C78.450523,128.922897 78.367889,129.630295 77.862396,130.600372 
	C77.198578,130.813766 76.957626,130.764450 76.762375,130.363281 
	C77.015839,129.336411 77.223595,128.661407 77.431351,127.986397 
z"/>
<path fill="#BC5254" opacity="1.000000" stroke="none" 
	d="
M76.716667,130.715149 
	C76.957626,130.764450 77.198578,130.813766 77.798546,130.951691 
	C78.157555,131.040298 78.325722,131.149246 78.326126,131.244385 
	C78.033134,132.073807 77.739738,132.808060 77.149323,133.318634 
	C76.867317,132.324600 76.882347,131.554230 76.839783,130.799347 
	C76.782188,130.814804 76.716667,130.715149 76.716667,130.715149 
z"/>
<path fill="#F7D32D" opacity="1.000000" stroke="none" 
	d="
M28.935455,151.647491 
	C28.780500,151.973358 28.605406,151.988342 28.166660,152.007812 
	C27.787731,151.600449 27.672453,151.188614 27.613459,150.460602 
	C28.084936,150.541855 28.500128,150.939240 28.935455,151.647491 
z"/>
<path fill="#FCE56F" opacity="1.000000" stroke="none" 
	d="
M19.101452,125.296242 
	C19.308830,125.037407 19.514626,125.082085 20.015963,125.246094 
	C20.258965,125.745056 20.206423,126.124687 20.111683,126.792145 
	C19.746279,126.586563 19.423073,126.093163 19.101452,125.296242 
z"/>
<path fill="#D88B8A" opacity="1.000000" stroke="none" 
	d="
M83.698364,113.270172 
	C83.298698,113.122505 83.210182,112.907066 83.067978,112.346359 
	C83.343643,111.933861 83.672981,111.866615 84.251717,111.769524 
	C84.337242,112.227249 84.173370,112.714821 83.698364,113.270172 
z"/>
<path fill="#DB9292" opacity="1.000000" stroke="none" 
	d="
M81.218872,116.811020 
	C81.477798,116.493835 81.692444,116.454025 82.233704,116.453506 
	C82.440353,117.060097 82.320396,117.627380 81.900429,118.171692 
	C81.458481,117.795273 81.316544,117.441833 81.218872,116.811020 
z"/>
<path fill="#DB9292" opacity="1.000000" stroke="none" 
	d="
M81.276154,118.292366 
	C81.124367,118.402534 80.933708,118.493828 80.438423,118.668121 
	C80.200363,118.416092 80.402611,118.222168 80.967339,118.183990 
	C81.194130,118.198616 81.237282,118.273491 81.276154,118.292366 
z"/>
<path fill="#F1CFBE" opacity="1.000000" stroke="none" 
	d="
M50.050690,103.215256 
	C50.260788,103.057365 50.481174,103.166222 51.012630,103.476158 
	C51.323696,103.677231 51.298897,103.689774 51.165558,103.834999 
	C51.032223,103.980225 50.776989,104.246552 50.776993,104.246552 
	C50.538319,103.991699 50.299644,103.736847 50.050690,103.215256 
z"/>
<path fill="#F1CFBE" opacity="1.000000" stroke="none" 
	d="
M51.162464,103.849632 
	C51.218254,103.984108 51.143799,104.249168 50.923164,104.380394 
	C50.776989,104.246552 51.032223,103.980225 51.162464,103.849632 
z"/>
<path fill="#F8D86D" opacity="1.000000" stroke="none" 
	d="
M26.220707,142.186829 
	C26.554232,142.087814 26.748123,142.311447 26.903677,142.826477 
	C26.683800,142.845810 26.422379,142.643005 26.220707,142.186829 
z"/>
<path fill="#B7464B" opacity="1.000000" stroke="none" 
	d="
M75.835381,137.144730 
	C75.868416,138.145706 75.901451,139.146667 75.909927,140.518982 
	C75.885361,140.890305 75.590363,140.935684 75.075760,140.906067 
	C74.078743,140.907654 73.596321,140.938873 73.113907,140.970093 
	C73.383469,139.817490 73.653023,138.664871 74.189758,137.187592 
	C74.456932,136.862930 74.808365,136.906326 75.066025,136.962006 
	C75.494255,137.060028 75.664818,137.102386 75.835381,137.144730 
z"/>
<path fill="#C36269" opacity="1.000000" stroke="none" 
	d="
M72.135422,150.820496 
	C72.105118,151.544632 72.074806,152.268753 72.060318,153.352493 
	C71.561234,153.813461 71.046333,153.914810 70.227234,153.745224 
	C69.928627,152.945160 69.934227,152.416016 69.939835,151.886887 
	C70.092148,151.017761 70.244461,150.148651 70.725998,149.391556 
	C71.415298,149.942551 71.775360,150.381531 72.135422,150.820496 
z"/>
<path fill="#DF9B99" opacity="1.000000" stroke="none" 
	d="
M73.956001,144.034851 
	C73.956001,144.034851 74.022583,144.518799 74.053024,144.761215 
	C73.583839,145.965256 73.084213,146.926895 72.244904,147.742920 
	C71.617050,147.424911 71.328873,147.252518 71.040695,147.080124 
	C71.359421,146.353577 71.678146,145.627029 72.378952,144.546997 
	C73.159348,144.140640 73.557678,144.087753 73.956001,144.034851 
z"/>
<path fill="#F6DB8E" opacity="1.000000" stroke="none" 
	d="
M74.131210,134.097000 
	C74.562462,132.528900 74.993721,130.960815 75.725983,129.506439 
	C76.019417,130.104050 76.011841,130.587936 76.019547,131.430634 
	C75.988403,132.504639 75.941986,133.219849 75.895569,133.935059 
	C75.895569,133.935059 75.897766,133.826370 75.649979,133.838379 
	C75.402199,133.850372 75.047302,134.019073 74.817627,134.030914 
	C74.587959,134.042755 74.131210,134.097000 74.131210,134.097000 
z"/>
<path fill="#B4403F" opacity="1.000000" stroke="none" 
	d="
M71.015587,147.383606 
	C71.328873,147.252518 71.617050,147.424911 71.935936,147.870758 
	C72.155609,148.939850 72.344566,149.735504 72.334473,150.675842 
	C71.775360,150.381531 71.415298,149.942551 71.003479,149.203979 
	C70.964638,148.498611 70.977554,148.092850 71.015587,147.383606 
z"/>
<path fill="#CB7576" opacity="1.000000" stroke="none" 
	d="
M74.113586,143.738419 
	C73.557678,144.087753 73.159348,144.140640 72.464088,144.254776 
	C72.436646,143.429428 72.706139,142.542831 73.044769,141.313171 
	C73.596321,140.938873 74.078743,140.907654 74.927048,140.918671 
	C74.952354,141.787918 74.611763,142.614960 74.113586,143.738419 
z"/>
<path fill="#B94B53" opacity="1.000000" stroke="none" 
	d="
M84.481049,108.780029 
	C83.997742,109.089096 83.766716,109.066422 83.355408,109.095551 
	C83.655128,108.028908 84.131920,106.943016 84.983566,105.848915 
	C85.151123,106.699043 84.943832,107.557381 84.481049,108.780029 
z"/>
<path fill="#F9EACB" opacity="1.000000" stroke="none" 
	d="
M76.004265,131.071838 
	C76.011841,130.587936 76.019417,130.104050 75.974419,129.259918 
	C76.204346,128.265686 76.486847,127.631668 77.130936,126.972931 
	C77.492889,127.121918 77.493248,127.295609 77.462479,127.727852 
	C77.223595,128.661407 77.015839,129.336411 76.762375,130.363281 
	C76.716667,130.715149 76.782188,130.814804 76.594727,130.802414 
	C76.407265,130.790024 76.004265,131.071838 76.004265,131.071838 
z"/>
<path fill="#EFCDC5" opacity="1.000000" stroke="none" 
	d="
M74.072998,134.433929 
	C74.131210,134.097000 74.587959,134.042755 74.804184,134.393219 
	C74.949722,135.464569 74.879044,136.185440 74.808365,136.906326 
	C74.808365,136.906326 74.456932,136.862930 74.281631,136.838348 
	C74.075813,136.132797 74.045296,135.451813 74.072998,134.433929 
z"/>
<path fill="#BC5254" opacity="1.000000" stroke="none" 
	d="
M79.962944,123.495911 
	C79.823631,123.834694 79.665016,123.926353 79.231522,124.011627 
	C78.986641,123.568130 79.016617,123.131027 79.096649,122.369492 
	C79.412346,122.446312 79.677994,122.847549 79.962944,123.495911 
z"/>
<path fill="#CC747C" opacity="1.000000" stroke="none" 
	d="
M69.647476,152.095367 
	C69.934227,152.416016 69.928627,152.945160 69.855362,153.873657 
	C69.787697,154.273026 69.528954,154.404419 69.383438,154.413483 
	C69.276993,153.716293 69.316063,153.010071 69.647476,152.095367 
z"/>
<path fill="#FBE25D" opacity="1.000000" stroke="none" 
	d="
M17.414547,113.988380 
	C16.864401,113.437065 16.682241,112.884842 16.261021,112.161087 
	C16.021961,111.016060 16.021961,110.042572 16.021961,109.064255 
	C16.737255,109.187714 17.355177,109.294373 18.002865,109.124619 
	C18.400127,110.271614 18.767622,111.695015 19.195581,113.516602 
	C18.764875,113.939018 18.273706,113.963249 17.414547,113.988380 
z"/>
<path fill="#F2D09C" opacity="1.000000" stroke="none" 
	d="
M30.117130,145.093811 
	C29.547544,144.789978 29.065285,144.049744 28.295782,143.140625 
	C27.990639,142.254807 27.972738,141.537903 28.010256,140.243820 
	C28.200075,139.373871 28.367575,139.101440 28.568169,138.849350 
	C29.113596,140.785370 29.659025,142.721405 30.117130,145.093811 
z"/>
<path fill="#F5C710" opacity="1.000000" stroke="none" 
	d="
M21.929264,125.016647 
	C21.929264,125.016647 22.021034,124.536346 22.263367,124.296280 
	C22.505701,124.056206 22.910826,124.089035 22.910826,124.089035 
	C22.952066,124.442833 22.993307,124.796638 23.084110,125.708542 
	C23.386744,126.559418 23.639818,126.852173 23.892893,127.144936 
	C23.892893,127.144936 23.939371,127.571655 23.669411,127.797928 
	C23.399448,128.024200 22.937141,128.042847 22.937141,128.042847 
	C22.592884,127.572311 22.248625,127.101768 21.916319,126.087219 
	C21.928602,125.367691 21.928934,125.192169 21.929264,125.016647 
z"/>
<path fill="#F9D83D" opacity="1.000000" stroke="none" 
	d="
M22.932810,128.330536 
	C22.937141,128.042847 23.399448,128.024200 23.630117,128.008926 
	C24.240164,128.477524 24.619543,128.961395 24.964085,129.754486 
	C24.726664,130.056686 24.524080,130.049637 24.013889,130.041779 
	C23.447014,129.566727 23.187746,129.092468 22.932810,128.330536 
z"/>
<path fill="#F8D86D" opacity="1.000000" stroke="none" 
	d="
M28.508682,138.601562 
	C28.367575,139.101440 28.200075,139.373871 27.968685,139.886078 
	C27.614153,139.816345 27.356607,139.527145 27.036064,138.942474 
	C26.973064,138.647003 26.930012,138.305115 26.968906,138.137207 
	C27.488264,138.097458 27.968729,138.225632 28.508682,138.601562 
z"/>
<path fill="#F8D528" opacity="1.000000" stroke="none" 
	d="
M20.152964,116.437843 
	C19.978064,116.796608 19.790068,116.870613 19.300299,116.972610 
	C19.138157,116.451660 19.277788,115.902702 19.656120,115.196030 
	C19.976505,115.409904 20.058187,115.781487 20.152964,116.437843 
z"/>
<path fill="#F8D528" opacity="1.000000" stroke="none" 
	d="
M22.162289,122.527649 
	C21.953173,122.316956 21.711063,121.820755 21.716261,121.213226 
	C22.018810,121.481972 22.074053,121.862053 22.162289,122.527649 
z"/>
<path fill="#F9D83D" opacity="1.000000" stroke="none" 
	d="
M23.930008,126.825104 
	C23.639818,126.852173 23.386744,126.559418 23.075691,125.975708 
	C23.334183,125.958275 23.650652,126.231773 23.930008,126.825104 
z"/>
<path fill="#F8D528" opacity="1.000000" stroke="none" 
	d="
M20.229733,118.119530 
	C20.013866,117.944016 20.042732,117.723877 20.177753,117.187347 
	C20.645372,116.921738 20.890133,117.118111 20.987110,117.704964 
	C20.956032,117.949860 20.474464,118.074898 20.229733,118.119530 
z"/>
<path fill="#F8D528" opacity="1.000000" stroke="none" 
	d="
M22.964233,123.818398 
	C22.910826,124.089035 22.505701,124.056206 22.303556,124.055115 
	C22.098480,123.851097 22.095547,123.648186 22.165342,123.148865 
	C22.497927,123.084229 22.757782,123.315994 22.964233,123.818398 
z"/>
<path fill="#FDE969" opacity="1.000000" stroke="none" 
	d="
M26.952667,135.870300 
	C26.661913,135.911179 26.412357,135.634705 26.095629,135.080948 
	C26.350258,135.053421 26.672062,135.303192 26.952667,135.870300 
z"/>
<path fill="#FEF9F1" opacity="1.000000" stroke="none" 
	d="
M52.928307,91.648788 
	C52.583195,91.745125 52.336723,91.491074 51.946564,91.010284 
	C52.103157,83.992317 54.828274,78.430748 60.100262,74.085159 
	C64.541702,70.424164 68.898811,66.660843 73.640610,62.940369 
	C74.762543,67.560280 72.390785,70.874626 69.283020,73.753922 
	C65.649330,77.120461 61.653549,80.118156 58.210773,83.660637 
	C56.099014,85.833549 54.729675,88.727982 52.928307,91.648788 
z"/>
<path fill="#FEF188" opacity="1.000000" stroke="none" 
	d="
M30.319202,155.754333 
	C30.037355,155.175705 30.017708,154.434326 29.933952,153.324112 
	C30.107029,153.834045 30.344215,154.712799 30.319202,155.754333 
z"/>
<path fill="#FCE56F" opacity="1.000000" stroke="none" 
	d="
M21.647648,125.049042 
	C21.928934,125.192169 21.928602,125.367691 21.854132,125.796188 
	C21.528667,125.924217 21.299166,125.767342 20.959515,125.418671 
	C21.007040,125.199669 21.186537,125.140556 21.647648,125.049042 
z"/>
<path fill="#AF333B" opacity="1.000000" stroke="none" 
	d="
M76.019547,131.430634 
	C76.004265,131.071838 76.407265,130.790024 76.652321,130.786957 
	C76.882347,131.554230 76.867317,132.324600 76.789101,133.470917 
	C76.725906,133.846878 76.313713,133.913345 76.104645,133.924194 
	C75.941986,133.219849 75.988403,132.504639 76.019547,131.430634 
z"/>
<path fill="#BC5254" opacity="1.000000" stroke="none" 
	d="
M75.066025,136.962006 
	C74.879044,136.185440 74.949722,135.464569 75.033852,134.381378 
	C75.047302,134.019073 75.402199,133.850372 75.596016,133.831894 
	C75.873955,134.037048 75.958069,134.260666 76.078217,135.082855 
	C76.158997,136.032608 76.203728,136.383759 76.248459,136.734924 
	C76.248459,136.734924 76.040779,136.936478 75.938080,137.040604 
	C75.664818,137.102386 75.494255,137.060028 75.066025,136.962006 
z"/>
<path fill="#B7464B" opacity="1.000000" stroke="none" 
	d="
M76.403671,136.781067 
	C76.203728,136.383759 76.158997,136.032608 76.178101,135.427032 
	C76.472168,135.567322 76.702393,135.962036 76.907524,136.599014 
	C76.882439,136.841293 76.558884,136.827209 76.403671,136.781067 
z"/>
</svg>